<?xml version="1.0" standalone="no"?>
<!DOCTYPE svg PUBLIC "-//W3C//DTD SVG 20010904//EN"
 "http://www.w3.org/TR/2001/REC-SVG-20010904/DTD/svg10.dtd">
<svg version="1.0" xmlns="http://www.w3.org/2000/svg"
 width="1920.000000pt" height="1920.000000pt" viewBox="0 0 1920.000000 1920.000000"
 preserveAspectRatio="xMidYMid meet">

<g transform="translate(0.000000,1920.000000) scale(0.100000,-0.100000)"
fill="#000000" stroke="none">
<path d="M3520 17310 c-192 -23 -342 -58 -530 -125 -71 -25 -257 -122 -349
-182 -186 -121 -350 -273 -484 -451 -42 -56 -77 -104 -77 -106 0 -7 -64 -110
-71 -116 -4 -3 -27 -48 -51 -100 -92 -195 -145 -375 -180 -605 -19 -133 -20
-12075 0 -12210 50 -341 172 -651 346 -884 23 -30 56 -74 75 -99 78 -105 248
-261 390 -359 25 -18 51 -37 58 -43 7 -5 15 -10 18 -10 4 0 26 -14 50 -30 49
-34 207 -110 270 -130 22 -7 45 -16 50 -20 13 -9 144 -50 161 -50 7 0 33 -6
56 -14 24 -8 68 -18 98 -21 30 -4 75 -12 100 -18 65 -16 11974 -23 12150 -7
198 18 302 42 508 116 544 197 989 667 1162 1229 29 96 58 223 72 320 19 133
19 12117 0 12250 -30 202 -86 392 -168 565 -163 342 -405 613 -734 822 -77 49
-238 130 -295 148 -22 7 -58 21 -80 30 -40 18 -238 67 -370 92 -57 10 -1173
13 -6095 14 -3314 0 -6050 -2 -6080 -6z m4580 -3035 l0 -435 210 0 210 0 0
-55 0 -55 -280 0 -280 0 0 483 c0 266 3 487 7 490 3 4 35 7 70 7 l63 0 0 -435z
m2239 418 c12 -10 24 -35 27 -55 16 -94 -121 -124 -155 -35 -12 31 0 75 26 95
24 17 77 15 102 -5z m-1301 -258 c28 -9 73 -33 101 -55 120 -95 162 -315 88
-471 -94 -203 -371 -261 -536 -113 -60 54 -97 125 -111 217 -30 194 67 371
233 423 57 17 163 17 225 -1z m771 -11 c28 -15 59 -37 68 -50 22 -35 31 -30
35 19 l3 42 55 3 55 3 -3 -363 c-4 -391 -8 -431 -57 -514 -75 -127 -310 -176
-487 -102 -51 22 -52 26 -27 96 10 27 11 27 79 1 39 -15 79 -22 135 -23 70 -1
86 2 125 26 65 38 92 91 98 192 l5 81 -38 -34 c-57 -50 -100 -65 -185 -65 -86
0 -151 27 -206 86 -94 99 -120 272 -63 423 28 74 112 162 179 187 72 26 166
23 229 -8z m1182 14 c56 -16 112 -69 140 -130 23 -51 24 -64 27 -315 l3 -263
-65 0 -65 0 -3 243 c-3 219 -5 246 -23 281 -26 52 -62 77 -118 83 -84 10 -161
-48 -187 -138 -6 -19 -10 -132 -10 -251 l0 -218 -65 0 -65 0 -1 340 c-1 187
-2 346 -3 353 -1 8 18 13 55 15 56 3 56 3 63 -29 3 -17 6 -42 6 -56 0 -23 1
-22 31 12 66 75 178 104 280 73z m-641 -353 l0 -355 -65 0 -65 0 0 355 0 355
65 0 65 0 0 -355z m-6668 -1304 c3 -160 14 -186 85 -209 50 -16 107 1 137 41
21 29 22 35 26 300 0 4 10 7 21 7 21 0 21 -3 17 -137 -6 -196 -34 -243 -149
-251 -71 -5 -120 16 -151 67 -21 32 -23 51 -26 179 -4 137 -3 142 16 142 19 0
21 -7 24 -139z m531 27 c25 -10 34 -27 21 -40 -3 -4 -21 0 -39 8 -45 19 -68
18 -95 -4 -33 -27 -17 -47 63 -79 55 -22 74 -34 81 -54 23 -67 -29 -115 -115
-107 -59 6 -105 33 -89 53 9 11 19 9 58 -7 52 -22 96 -14 109 18 10 27 -9 45
-67 66 -72 27 -90 44 -90 85 0 69 73 97 163 61z m283 6 c40 -19 71 -66 76
-114 l3 -35 -112 -3 c-102 -2 -113 -4 -113 -21 0 -25 46 -68 81 -76 20 -5 43
0 75 15 46 23 61 22 51 -4 -9 -23 -66 -48 -108 -48 -151 2 -195 216 -59 284
43 22 63 22 106 2z m537 2 c64 -27 72 -46 72 -170 0 -92 -3 -111 -15 -111 -12
0 -16 21 -20 108 -5 99 -7 111 -29 128 -34 28 -87 25 -116 -7 -25 -27 -27 -33
-29 -159 -1 -58 -4 -70 -18 -73 -17 -3 -18 9 -18 142 0 124 2 146 15 146 9 0
18 -6 21 -14 4 -11 12 -10 42 5 43 23 53 23 95 5z m664 -18 c21 -20 21 -20 50
1 41 30 82 35 123 14 51 -26 60 -53 60 -175 0 -86 -3 -108 -14 -108 -11 0 -15
23 -18 109 -2 90 -6 113 -22 130 -24 27 -76 28 -107 2 -22 -17 -24 -29 -29
-128 -4 -87 -8 -108 -20 -108 -12 0 -16 21 -20 107 -6 121 -19 148 -74 148
-66 -1 -86 -42 -86 -171 0 -81 -2 -90 -17 -87 -16 3 -18 18 -18 143 0 125 2
140 18 143 12 2 17 -3 17 -19 0 -20 1 -21 13 -6 30 40 103 42 144 5z m510 6
c33 -21 54 -57 60 -104 l6 -40 -117 0 c-64 0 -116 -2 -116 -4 0 -23 26 -60 52
-76 42 -25 64 -25 112 1 27 14 42 17 49 10 8 -8 5 -15 -9 -26 -105 -83 -256
-5 -240 123 8 61 35 102 81 123 43 20 83 18 122 -7z m-1527 -16 c1 -27 2 -30
11 -15 12 21 61 47 89 47 34 0 20 -31 -19 -44 -56 -18 -75 -54 -81 -154 -4
-68 -8 -87 -20 -87 -13 0 -15 24 -18 143 -2 137 -2 142 18 142 16 0 20 -7 20
-32z m689 17 c39 -20 51 -61 51 -171 0 -94 -11 -123 -34 -91 -9 11 -16 13 -30
5 -60 -33 -122 -26 -163 19 -32 34 -30 78 6 114 27 27 35 29 105 29 68 0 76 2
76 19 0 11 -12 29 -27 41 -28 22 -68 23 -130 4 -17 -5 -23 -2 -23 10 0 35 116
49 169 21z m10126 -649 c243 -74 416 -242 497 -482 19 -59 23 -89 23 -204 0
-115 -3 -145 -23 -205 -81 -241 -260 -413 -503 -482 -61 -17 -304 -18 -5939
-18 -5704 0 -5877 1 -5935 19 -315 97 -519 367 -519 686 0 158 35 270 127 404
47 70 55 79 127 140 91 78 203 131 325 156 22 4 2677 7 5900 6 5650 -1 5862
-2 5920 -20z m-9345 -3016 c0 -193 -1 -200 -20 -200 -13 0 -20 7 -20 20 0 18
-2 18 -36 -5 -92 -63 -206 6 -206 124 0 63 25 106 77 131 54 26 85 25 129 -5
l36 -24 0 79 c0 73 2 80 20 80 19 0 20 -7 20 -200z m-2290 168 c50 -26 70 -56
70 -109 0 -77 -62 -119 -175 -119 l-75 0 0 -70 c0 -63 -2 -70 -20 -70 -19 0
-20 7 -20 188 0 104 3 192 7 195 3 4 43 7 88 7 64 0 90 -5 125 -22z m320 -100
c35 -22 52 -83 49 -180 -3 -77 -5 -88 -21 -88 -10 0 -18 6 -18 14 0 11 -8 10
-37 -6 -49 -25 -114 -20 -149 13 -28 27 -33 82 -9 116 20 29 87 47 147 39 40
-6 48 -4 48 9 0 9 -11 27 -25 40 -26 27 -73 33 -121 15 -27 -11 -50 3 -38 22
17 27 133 31 174 6z m296 -3 c35 -22 18 -44 -21 -27 -34 15 -88 15 -103 0 -23
-23 -13 -48 26 -64 126 -54 122 -51 122 -90 0 -19 -4 -43 -10 -53 -15 -28 -64
-44 -112 -37 -53 8 -98 40 -82 56 9 9 19 8 42 -4 40 -20 96 -20 116 0 35 34
12 58 -82 89 -80 26 -97 82 -40 130 27 23 39 26 75 22 23 -2 55 -12 69 -22z
m254 9 c23 -9 39 -22 37 -28 -4 -11 -13 -11 -90 1 -75 11 -94 -46 -24 -77 23
-11 48 -20 56 -20 26 0 61 -42 61 -72 0 -64 -47 -95 -124 -84 -54 8 -97 39
-80 56 9 9 19 8 42 -4 58 -30 132 -13 132 29 0 19 -34 40 -87 56 -85 24 -107
77 -54 130 34 34 70 37 131 13z m360 -99 c18 -55 35 -103 39 -107 4 -5 24 42
45 102 31 87 42 110 57 110 11 0 19 -1 19 -2 -1 -15 -101 -273 -109 -281 -16
-16 -25 -2 -61 103 -18 52 -36 98 -39 102 -4 4 -22 -36 -40 -90 -35 -101 -54
-133 -69 -117 -9 10 -102 264 -102 278 0 4 8 7 18 7 13 0 25 -24 51 -97 18
-54 37 -104 41 -112 5 -9 21 27 44 97 34 102 51 130 67 113 4 -3 21 -51 39
-106z m420 97 c50 -25 80 -75 80 -132 0 -57 -30 -107 -80 -132 -68 -34 -144
-13 -188 52 -20 29 -23 44 -20 88 3 31 13 64 25 80 24 34 78 62 118 62 17 0
46 -8 65 -18z m310 1 c-1 -11 -17 -26 -43 -38 -57 -27 -77 -69 -77 -162 0 -63
-2 -73 -17 -73 -16 0 -18 12 -16 137 2 115 5 139 18 141 11 3 15 -5 15 -29 l0
-33 16 23 c16 22 66 50 92 51 6 0 12 -8 12 -17z m9675 -676 c243 -74 417 -242
497 -482 20 -60 23 -89 22 -205 0 -118 -4 -145 -27 -215 -64 -193 -185 -331
-372 -420 -171 -83 441 -75 -6067 -75 -5223 0 -5817 2 -5886 16 -44 8 -118 35
-172 61 -82 39 -108 58 -185 137 -73 73 -99 108 -133 178 -126 253 -97 541 75
755 110 138 245 223 408 258 49 11 1118 13 5920 12 5628 -2 5862 -3 5920 -20z
m-215 -2482 c283 -14 556 -200 693 -470 69 -135 91 -232 90 -390 -1 -156 -21
-246 -88 -380 -111 -224 -324 -395 -570 -457 l-90 -23 -5765 0 -5765 0 -85 24
c-270 76 -484 263 -588 513 -94 226 -80 517 34 728 63 116 178 244 288 319 99
69 240 121 374 140 58 8 11316 4 11472 -4z"/>
<path d="M8863 14344 c-36 -8 -109 -81 -127 -125 -57 -141 -10 -326 95 -380
33 -17 55 -20 101 -17 94 7 157 68 184 180 21 83 13 157 -24 230 -38 74 -88
111 -154 114 -29 1 -63 0 -75 -2z"/>
<path d="M9660 14338 c-79 -22 -131 -89 -149 -194 -17 -92 4 -182 55 -243 35
-42 79 -61 139 -61 59 0 104 19 138 59 40 47 49 94 45 217 -3 98 -6 115 -28
147 -43 63 -129 95 -200 75z"/>
<path d="M4379 12761 c-51 -51 -42 -61 61 -61 81 0 90 2 90 19 0 10 -11 30
-25 45 -34 37 -87 36 -126 -3z"/>
<path d="M6084 12772 c-20 -15 -44 -52 -44 -66 0 -3 43 -6 95 -6 108 0 118 9
66 61 -34 34 -84 39 -117 11z"/>
<path d="M5232 12664 c-41 -28 -22 -86 33 -100 32 -8 93 13 105 36 15 28 12
67 -6 74 -30 12 -110 6 -132 -10z"/>
<path d="M5938 9165 c-33 -30 -44 -81 -28 -129 31 -95 164 -91 197 7 35 105
-90 195 -169 122z"/>
<path d="M3680 9201 l0 -91 53 0 c70 0 123 16 142 43 23 34 19 80 -11 108 -22
20 -38 24 -105 28 l-79 3 0 -91z"/>
<path d="M4044 9073 c-19 -14 -34 -51 -27 -68 3 -10 19 -23 36 -30 62 -26 140
18 135 75 -3 24 -7 25 -68 28 -36 1 -70 -1 -76 -5z"/>
<path d="M5371 9161 c-26 -24 -31 -36 -31 -76 0 -88 70 -142 143 -112 47 20
67 52 67 108 0 40 -5 53 -31 78 -43 43 -103 44 -148 2z"/>
</g>
</svg>
